<?xml version="1.0" encoding="UTF-8" standalone="no"?>
<!DOCTYPE svg PUBLIC "-//W3C//DTD SVG 20010904//EN"
"http://www.w3.org/TR/2001/REC-SVG-20010904/DTD/svg10.dtd">
<!-- Created with Inkscape (http://www.inkscape.org/) -->
<svg
   version="1.0"
   x="0.0000000"
   y="0.0000000"
   width="12.000000cm"
   height="5.5000000cm"
   id="svg1"
   sodipodi:version="0.32"
   inkscape:version="0.40"
   sodipodi:docname="chapter_flash.svg"
   sodipodi:docbase="/home/rjw57/Academic_Files/Documents/phd3/thesis"
   xmlns="http://www.w3.org/2000/svg"
   xmlns:cc="http://web.resource.org/cc/"
   xmlns:inkscape="http://www.inkscape.org/namespaces/inkscape"
   xmlns:sodipodi="http://sodipodi.sourceforge.net/DTD/sodipodi-0.dtd"
   xmlns:rdf="http://www.w3.org/1999/02/22-rdf-syntax-ns#"
   xmlns:dc="http://purl.org/dc/elements/1.1/"
   xmlns:xlink="http://www.w3.org/1999/xlink">
  <metadata
     id="metadata18">
    <rdf:RDF
       id="RDF19">
      <cc:Work
         rdf:about=""
         id="Work20">
        <dc:format
           id="format21">image/svg+xml</dc:format>
        <dc:type
           id="type23"
           rdf:resource="http://purl.org/dc/dcmitype/StillImage" />
      </cc:Work>
    </rdf:RDF>
  </metadata>
  <sodipodi:namedview
     id="base"
     pagecolor="#ffffff"
     bordercolor="#666666"
     borderopacity="1.0"
     inkscape:pageopacity="0.0"
     inkscape:pageshadow="2"
     inkscape:zoom="1.7366334"
     inkscape:cx="215.97028"
     inkscape:cy="121.95325"
     inkscape:window-width="908"
     inkscape:window-height="799"
     inkscape:window-x="115"
     inkscape:window-y="25"
     inkscape:current-layer="svg1"
     showguides="true"
     inkscape:guide-bbox="true" />
  <defs
     id="defs3">
    <linearGradient
       id="linearGradient1683">
      <stop
         style="stop-color:#99ccff;stop-opacity:1.0000000;"
         offset="0.0000000"
         id="stop1684" />
      <stop
         style="stop-color:#e1f0ff;stop-opacity:1.0000000;"
         offset="1.0000000"
         id="stop1685" />
    </linearGradient>
  </defs>
  <path
     style="fill:#e1f0ff;fill-opacity:1.0000000;stroke:none;"
     d="M -2.8421709e-14,184.49483 L -2.8421709e-14,187.79527 C 4.7582552,187.29223 5.2638740,184.70273 -2.8421709e-14,184.49483 M 39.867754,184.82488 C 38.504936,189.94991 50.453975,185.49655 43.176795,184.87376 C 42.107679,184.78227 40.946195,184.82676 39.867754,184.82488 M -2.8421709e-14,164.69216 L -2.8421709e-14,174.26346 C 16.179689,174.24039 15.927190,164.71494 -2.8421709e-14,164.69216 M 45.183452,173.78010 C 51.630740,173.20886 58.525187,169.57894 52.214125,166.50576 C 48.996815,164.93937 43.425299,164.74266 39.203300,165.09647 C 32.747385,165.63742 27.706773,169.39772 32.890242,172.15328 C 35.724839,173.65988 41.274427,174.12648 45.183452,173.78010 M 87.043903,172.42428 C 91.297815,171.81416 93.915126,168.84717 90.158261,167.18866 C 87.529628,166.02852 82.247160,166.17308 79.099590,166.62722 C 75.092242,167.20500 73.789220,169.98932 76.701569,171.48485 C 79.086988,172.70994 83.901024,172.87502 87.043903,172.42428 M 128.89308,171.66996 C 137.26664,169.91990 128.95025,165.94965 122.29033,167.29737 C 114.60116,168.85347 122.76342,172.95121 128.89308,171.66996 M 168.06978,170.71293 C 173.04460,169.75674 168.20930,167.30717 164.27437,168.19177 C 160.04241,169.14310 164.69361,171.36181 168.06978,170.71293 M -2.8421709e-14,146.53971 L -2.8421709e-14,159.08141 C 11.071293,158.96787 25.260880,152.38516 11.933763,147.84867 C 8.1769003,146.56974 4.3661941,146.53971 -2.8421709e-14,146.53971 M 45.847924,158.27644 C 54.503880,157.60479 63.187059,152.98385 55.054697,148.91240 C 51.245346,147.00539 44.321642,146.61463 39.203300,147.01465 C 30.094188,147.72688 22.017645,152.72575 30.704818,156.64106 C 34.449079,158.32892 41.059813,158.64773 45.847924,158.27644 M 89.702433,157.87708 C 97.488607,156.71005 100.89132,151.47720 94.228737,148.70776 C 89.315044,146.66513 80.742825,147.02289 75.084274,147.93513 C 68.403082,149.01208 66.424303,153.59409 71.246968,156.04071 C 75.526124,158.21173 83.982748,158.73421 89.702433,157.87708 M 130.89910,157.22195 C 137.46665,156.31729 141.20027,152.05278 135.87589,149.34443 C 132.45793,147.60608 124.70104,147.39617 120.26771,148.08696 C 114.06893,149.05301 109.80041,153.04490 115.10350,155.69416 C 118.90287,157.59192 125.88375,157.91240 130.89910,157.22195 M 170.76416,156.56052 C 176.91180,155.66841 179.80820,151.98381 174.53501,149.69924 C 171.15353,148.23417 164.82854,148.34176 160.80055,148.98006 C 155.49486,149.82068 153.56522,153.39343 157.57592,155.38029 C 160.74941,156.95263 166.60067,157.16451 170.76416,156.56052 M 209.96946,155.19250 C 219.64068,154.46474 214.36150,149.47479 205.98666,150.24544 C 198.13471,150.96824 203.05771,155.71264 209.96946,155.19250 M 249.74017,153.87133 C 253.78540,153.10398 250.18934,150.85340 246.72750,151.68974 C 243.48890,152.47227 246.93285,154.40369 249.74017,153.87133 M 9.9669679,129.04735 L 9.9669679,128.71731 C 14.080623,128.24865 18.787033,126.14098 22.591727,126.04725 C 25.292796,125.98091 28.605132,127.32848 31.229750,127.71297 C 36.017863,128.41432 41.556824,128.56547 46.512376,128.33116 C 50.588863,128.13840 54.740423,127.88163 58.446779,126.95915 C 60.319907,126.49281 62.227587,125.26109 64.462820,125.37528 C 68.225674,125.56803 72.572594,127.17633 76.413200,127.67570 C 86.620006,129.00313 102.12390,127.31461 105.64953,121.78638 L 106.31398,121.78638 C 111.15129,129.87080 145.23421,128.76153 146.15246,119.80611 C 147.14256,110.14868 111.95727,108.58988 106.31398,116.83571 L 105.64953,116.83571 C 104.12259,114.44091 100.84812,112.94745 96.347056,111.88506 C 99.246762,111.26028 104.00166,109.34073 106.97846,109.36945 C 115.20782,109.44899 121.86772,112.18077 130.89910,111.44774 C 134.83870,111.12792 139.40688,110.46189 142.85675,109.45494 C 144.70728,108.91465 146.71396,107.33341 148.89940,107.26839 C 151.53201,107.19017 154.97787,108.81101 157.47758,109.25723 C 162.70026,110.18961 169.46915,110.17839 174.75364,109.36912 C 187.91728,107.35320 192.58044,96.001994 175.41806,95.382834 L 175.41806,95.052784 C 180.24272,94.625704 186.91724,93.164274 188.70728,90.762207 C 202.55605,95.003604 222.72513,96.047544 230.56843,87.461762 C 235.43629,95.170284 268.05341,94.319094 267.08462,85.151449 C 266.21153,76.889126 234.59310,76.492736 230.56843,83.831282 L 229.90399,83.831282 C 227.97240,80.025863 220.93903,77.924475 213.29241,77.890481 L 213.29241,77.560437 C 217.48053,77.172963 220.88655,76.831695 224.58763,75.707237 C 226.43082,75.147479 229.07539,73.605509 231.29271,73.590988 C 233.75054,73.574823 236.77914,74.876180 239.20647,75.236258 C 247.19195,76.420465 254.22332,76.356766 261.73835,74.509502 C 270.40295,72.380057 272.03021,65.359353 263.75499,62.562887 C 257.66054,60.503737 248.83050,60.432780 241.86431,61.089569 C 234.33591,61.799167 231.69406,63.785374 225.25272,60.728168 C 228.73052,60.317597 231.90069,58.658459 235.21968,58.486509 C 245.46037,57.956784 254.47645,60.888566 264.44607,57.455450 C 275.51068,53.645749 272.00098,44.885710 259.14030,43.235819 L 259.14030,42.905775 C 265.18095,42.455924 269.64347,40.828475 271.76513,37.955107 C 281.89683,42.942076 311.70064,44.900892 311.14912,34.324618 C 310.62483,24.279722 281.63172,26.137534 271.76513,31.024172 C 269.98035,28.607594 266.77432,27.117109 261.79814,26.403560 L 261.79814,26.073506 C 265.64807,25.591314 269.54979,23.198823 273.09403,23.107075 C 275.61964,23.041393 278.59579,24.468509 281.06757,24.823303 C 288.61920,25.907491 298.74029,25.825310 305.65201,23.869802 C 318.31467,20.287499 314.39963,11.281913 301.00143,9.4422392 C 294.87575,8.6009622 287.17334,8.6250502 281.06757,9.5013142 C 278.50603,9.8689942 275.13327,11.433398 272.48937,11.264423 C 269.79496,11.092793 267.34974,9.3386082 264.45601,8.9112012 L 264.45601,8.5811572 C 267.80754,8.0494481 270.11260,7.1596551 271.76513,5.6107557 C 284.18256,8.4897311 307.59160,11.347927 313.62625,2.3103100 L 314.29067,2.3103100 C 318.64092,10.003973 350.12713,8.0784981 350.83612,-1.7593612e-06 L -2.8421709e-14,-1.7593612e-06 L -2.8421709e-14,143.56932 C 6.6267108,143.56932 12.810195,143.09867 17.517260,140.44446 C 24.542603,136.48293 19.701984,130.26951 9.9669679,129.04735 M 47.176851,143.09800 C 58.304601,142.29732 67.844280,135.93076 58.270053,131.09693 C 53.527115,128.70180 44.885097,128.40739 38.538828,128.85857 C 25.589153,129.77972 16.741808,136.62321 29.237031,141.45901 C 33.976631,143.29340 41.425931,143.51188 47.176851,143.09800 M 87.709034,142.43429 C 98.240116,141.61908 107.76118,135.69478 97.551060,131.15764 C 92.573578,128.94570 83.312303,128.96748 77.077632,129.48499 C 68.339973,130.20976 61.071418,135.28058 67.312037,139.27874 C 72.066256,142.32406 80.326200,143.00593 87.709034,142.43429 M 129.57018,141.76594 C 138.53975,140.98407 147.71264,135.95453 138.65407,131.93987 C 133.63867,129.71701 125.26842,129.58367 118.93879,130.19194 C 111.13399,130.94213 105.95053,135.84824 111.25360,139.26454 C 115.08954,141.73592 123.74813,142.27356 129.57018,141.76594 M 172.09578,141.04876 C 179.69456,139.97579 184.27732,135.23007 177.84800,132.14779 C 173.85790,130.23551 164.50162,130.23584 159.47097,130.95798 C 152.38115,131.97583 148.77048,136.37400 154.30483,139.20942 C 158.57664,141.39828 166.33154,141.86232 172.09578,141.04876 M 211.29903,140.77549 C 218.73036,140.11145 225.91187,135.52315 218.42340,132.36727 C 214.36352,130.65600 206.84847,130.84740 201.99654,131.45304 C 195.99645,132.20160 193.65822,136.14332 197.16459,138.58400 C 199.99589,140.55534 206.77405,141.18012 211.29903,140.77549 M 252.49504,139.33979 C 257.22736,138.51468 261.15364,135.25746 256.22068,133.28611 C 252.99338,131.99663 246.30159,132.03690 242.58857,132.72669 C 238.45362,133.49504 237.33729,136.28589 240.08221,137.92391 C 242.93341,139.62529 248.39598,140.05467 252.49504,139.33979 M 292.98868,137.31233 C 298.31303,136.18193 293.47709,133.59338 289.13944,134.52709 C 284.73738,135.47464 289.34077,138.08695 292.98868,137.31233 M 170.10237,125.93570 C 180.58958,125.18122 190.65948,119.74704 181.17962,114.92608 C 176.86394,112.73095 168.62992,112.26294 162.79329,112.64051 C 152.88082,113.28213 142.11257,118.57109 150.98446,123.40194 C 155.52274,125.87297 163.77604,126.39050 170.10237,125.93570 M 211.96347,125.27561 C 221.21148,124.61617 230.29136,120.11272 222.17363,115.68550 C 217.80147,113.30060 210.78673,112.84976 204.65439,113.27420 C 195.07219,113.93758 187.24150,119.34173 195.42438,123.40063 C 199.29155,125.31918 206.78930,125.64426 211.96347,125.27561 M 253.82197,123.88613 C 260.36094,122.93593 264.09387,118.47010 258.32636,116.01390 C 254.53625,114.39966 246.36735,114.47390 241.86696,115.20496 C 236.11472,116.13898 233.50603,120.10019 238.02902,122.35965 C 241.78857,124.23729 248.85112,124.60824 253.82197,123.88613 M 293.69235,122.93163 C 298.62266,122.37749 304.43338,119.44504 299.46122,117.03802 C 296.56283,115.63501 290.81260,115.52181 287.04774,115.94558 C 275.73793,117.21923 284.19124,123.99900 293.69235,122.93163 M 334.08169,120.88007 C 338.85587,119.83680 334.40331,117.19084 330.33613,118.07207 C 325.81314,119.05228 330.06902,121.75700 334.08169,120.88007 M 212.62795,108.76975 C 224.45872,107.85388 232.72927,101.48468 221.64804,96.913235 C 216.76024,94.897004 208.01392,94.997344 201.99654,95.453124 C 192.78580,96.150844 185.90924,101.92266 192.31531,105.91454 C 196.84499,108.73708 205.85180,109.29419 212.62795,108.76975 M 251.83125,108.11330 C 261.77027,107.39842 270.57902,101.56257 260.40677,97.550885 C 256.07251,95.841264 247.73748,96.090114 242.52873,96.472305 C 233.97716,97.100045 228.87402,102.35831 234.88678,105.89672 C 238.49349,108.01858 246.66571,108.48459 251.83125,108.11330 M 294.35682,106.74658 C 301.53103,106.08485 307.46600,101.78304 300.77552,98.851585 C 297.45985,97.399055 291.15409,97.456485 287.04774,97.800725 C 280.90011,98.315925 276.14922,101.82991 280.61444,104.60955 C 283.53537,106.42776 289.83978,107.16344 294.35682,106.74658 M 335.55284,105.06864 C 346.35499,103.37518 337.06715,97.885555 328.24705,99.278665 C 317.86684,100.91800 327.07560,106.39773 335.55284,105.06864 M 297.67914,91.208095 C 304.67524,90.161193 309.66205,85.374234 303.94568,82.355648 C 299.58614,80.053260 290.96407,79.567759 285.05434,80.411353 C 278.16188,81.395549 272.67211,85.842897 278.03363,89.050934 C 282.25829,91.578743 291.60993,92.116380 297.67914,91.208095 M 332.23117,89.948648 C 339.70836,89.623888 349.75372,85.474565 340.00274,82.210764 C 337.19470,81.270791 332.80061,81.422283 329.57333,81.551657 C 315.74652,82.106792 319.65421,90.494877 332.23117,89.948648 M 376.74018,88.235057 C 385.44197,87.286842 380.58476,82.759952 372.77599,83.593315 C 365.40247,84.379810 370.53142,88.911984 376.74018,88.235057 M 295.02129,74.774865 C 304.07725,74.050747 313.52923,69.186553 306.10851,64.706854 C 302.13501,62.308093 293.52490,61.743381 287.71219,62.193241 C 278.84828,62.879403 268.53380,67.097702 276.04025,71.935490 C 280.13067,74.571887 288.77467,75.274545 295.02129,74.774865 M 335.55348,73.446765 C 343.88782,72.715386 350.50321,68.025450 342.68048,64.546454 C 339.05651,62.934517 331.42650,63.076435 326.91548,63.477109 C 320.13661,64.079767 314.83951,68.208303 319.89477,71.228533 C 323.35529,73.296263 330.47233,73.892653 335.55348,73.446765 M 379.40801,71.747366 C 384.65923,71.047666 388.12203,67.948554 383.29643,65.817124 C 380.24524,64.469228 374.51625,64.367574 370.77065,64.954057 C 365.80645,65.731313 363.42504,68.917237 367.59918,70.821261 C 370.47894,72.134508 375.80064,72.227910 379.40801,71.747366 M 295.68574,57.612882 C 305.59489,56.843876 314.88076,51.208040 306.05536,46.627017 C 301.15562,44.083703 290.87702,44.098224 284.38987,44.664581 C 275.65221,45.427306 269.31923,50.972389 275.37315,54.757664 C 279.91805,57.599674 288.85574,58.142937 295.68574,57.612882 M 338.87579,56.887439 C 346.67991,55.785752 351.91586,50.747630 345.75366,47.370942 C 341.33497,44.949739 331.60856,44.577446 325.58656,45.426324 C 317.53259,46.561674 312.64081,51.611351 319.12732,55.047114 C 323.53271,57.380861 332.94547,57.724433 338.87579,56.887439 M 378.07908,55.954074 C 385.55162,55.286394 391.59361,51.265801 385.05925,48.019809 C 381.74825,46.375202 375.79266,46.251766 371.43444,46.610191 C 364.99047,47.139914 359.99440,50.877664 364.55924,53.753340 C 367.33006,55.498618 373.83714,56.333296 378.07908,55.954074 M 418.60103,53.184014 C 426.36135,51.570425 418.82541,47.953805 412.67005,49.187180 C 406.04795,50.514286 412.66855,54.417390 418.60103,53.184014 M 339.54025,40.326479 C 347.85267,38.884841 352.33646,33.619975 345.26129,30.285203 C 340.35754,27.973909 330.49161,27.687757 324.25764,28.749511 C 316.05884,30.145923 312.55711,35.334886 319.01435,38.580537 C 323.55794,40.864446 333.52889,41.369089 339.54025,40.326479 M 380.73627,39.117192 C 388.38828,38.328382 390.95688,33.503799 384.98350,30.964437 C 381.22596,29.366691 374.57270,29.572968 370.10552,30.074964 C 363.58382,30.807997 359.86349,34.941806 364.94132,37.554765 C 368.77196,39.525786 375.62787,39.643947 380.73627,39.117192 M 417.94628,37.440896 C 422.51124,37.155406 425.57160,34.401522 422.01357,32.530502 C 420.04152,31.493500 415.89076,31.576341 413.29609,31.784926 C 403.35035,32.583963 409.65306,37.960060 417.94628,37.440896 M 336.21793,23.951983 C 346.42076,23.225879 356.69934,17.308854 346.64667,12.788894 C 340.71636,10.122465 331.70226,10.284849 324.25764,10.957143 C 315.34122,11.762458 310.97832,17.581136 316.54586,21.121525 C 320.98380,23.943738 329.45038,24.433512 336.21793,23.951983 M 381.40140,22.228825 C 389.02230,21.086537 392.51327,16.126962 385.92772,13.389575 C 382.02464,11.767082 373.45906,11.774011 368.77661,12.475687 C 362.33993,13.440066 358.30202,17.668601 363.61239,20.355157 C 367.91016,22.529497 375.59598,23.098823 381.40140,22.228825 M 419.93761,20.179576 C 430.30287,18.065636 420.34154,12.788563 411.97687,14.524926 C 402.34358,16.524997 411.90678,21.817262 419.93761,20.179576 M 390.03941,-1.7593612e-06 L 360.80305,-1.7593612e-06 C 361.73329,7.1817661 388.74900,7.1164241 390.03941,-1.7593612e-06 M 424.59143,-1.7593612e-06 L 407.31539,-1.7593612e-06 C 409.23755,3.9301676 423.26490,4.2318316 424.59143,-1.7593612e-06 z "
     id="path1154" />
</svg>
