<?xml version="1.0" encoding="ISO-8859-1"?>
<!DOCTYPE svg PUBLIC "-//W3C//DTD SVG 1.0//EN" "http://www.w3.org/TR/2001/REC-SVG-20010904/DTD/svg10.dtd">
<!-- generated by Grace-5.1.17 -->
<svg xml:space="preserve" width="11.0000in" height="8.4792in" viewBox="0.0000 0.0000 792.0000 610.5000">
 <g transform="translate(0,610.5000) scale(1,-1)">
  <g style="fill:#FFFFFF; fill-rule:nonzero">
   <path  d="M0.0000,0.0000L0.0000,610.5000L792.0000,610.5000L792.0000,0.0000z"/>
  </g>
  <g style="fill:none; stroke:#000000; stroke-width:  0.9158; stroke-linecap:butt; stroke-linejoin:miter; stroke-dasharray:none">
   <path d="M112.9731,393.3909L122.8731,458.0276L135.8806,474.0532L182.6306,484.7370L234.1931,148.7331L297.2139,137.5151L457.6306,151.9382L659.3064,149.8014"/>
   <path d="M108.6562,389.0741L117.2899,397.7078"/>
   <path d="M108.6562,397.7078L117.2899,389.0741"/>
   <path d="M118.5562,453.7107L127.1899,462.3445"/>
   <path d="M118.5562,462.3445L127.1899,453.7107"/>
   <path d="M131.5637,469.7364L140.1974,478.3701"/>
   <path d="M131.5637,478.3701L140.1974,469.7364"/>
   <path d="M178.3137,480.4201L186.9474,489.0539"/>
   <path d="M178.3137,489.0539L186.9474,480.4201"/>
   <path d="M229.8762,144.4162L238.5099,153.0499"/>
   <path d="M229.8762,153.0499L238.5099,144.4162"/>
   <path d="M292.8970,133.1982L301.5308,141.8320"/>
   <path d="M292.8970,141.8320L301.5308,133.1982"/>
   <path d="M453.3137,147.6213L461.9474,156.2551"/>
   <path d="M453.3137,156.2551L461.9474,147.6213"/>
   <path d="M654.9895,145.4846L663.6233,154.1183"/>
   <path d="M654.9895,154.1183L663.6233,145.4846"/>
   <path d="M91.5750,91.5750L702.0750,91.5750"/>
   <path d="M91.5750,518.9250L702.0750,518.9250"/>
   <path d="M106.2417,91.5750L106.2417,97.6800"/>
   <path d="M106.2417,518.9250L106.2417,512.8200"/>
   <path d="M121.5194,91.5750L121.5194,97.6800"/>
   <path d="M121.5194,518.9250L121.5194,512.8200"/>
   <path d="M136.7972,91.5750L136.7972,97.6800"/>
   <path d="M136.7972,518.9250L136.7972,512.8200"/>
   <path d="M152.0750,91.5750L152.0750,97.6800"/>
   <path d="M152.0750,518.9250L152.0750,512.8200"/>
   <path d="M167.3528,91.5750L167.3528,97.6800"/>
   <path d="M167.3528,518.9250L167.3528,512.8200"/>
   <path d="M182.6306,91.5750L182.6306,97.6800"/>
   <path d="M182.6306,518.9250L182.6306,512.8200"/>
   <path d="M197.9083,91.5750L197.9083,97.6800"/>
   <path d="M197.9083,518.9250L197.9083,512.8200"/>
   <path d="M213.1861,91.5750L213.1861,97.6800"/>
   <path d="M213.1861,518.9250L213.1861,512.8200"/>
   <path d="M228.4639,91.5750L228.4639,97.6800"/>
   <path d="M228.4639,518.9250L228.4639,512.8200"/>
   <path d="M259.0194,91.5750L259.0194,97.6800"/>
   <path d="M259.0194,518.9250L259.0194,512.8200"/>
   <path d="M274.2972,91.5750L274.2972,97.6800"/>
   <path d="M274.2972,518.9250L274.2972,512.8200"/>
   <path d="M289.5750,91.5750L289.5750,97.6800"/>
   <path d="M289.5750,518.9250L289.5750,512.8200"/>
   <path d="M304.8528,91.5750L304.8528,97.6800"/>
   <path d="M304.8528,518.9250L304.8528,512.8200"/>
   <path d="M320.1306,91.5750L320.1306,97.6800"/>
   <path d="M320.1306,518.9250L320.1306,512.8200"/>
   <path d="M335.4083,91.5750L335.4083,97.6800"/>
   <path d="M335.4083,518.9250L335.4083,512.8200"/>
   <path d="M350.6861,91.5750L350.6861,97.6800"/>
   <path d="M350.6861,518.9250L350.6861,512.8200"/>
   <path d="M365.9639,91.5750L365.9639,97.6800"/>
   <path d="M365.9639,518.9250L365.9639,512.8200"/>
   <path d="M381.2417,91.5750L381.2417,97.6800"/>
   <path d="M381.2417,518.9250L381.2417,512.8200"/>
   <path d="M411.7972,91.5750L411.7972,97.6800"/>
   <path d="M411.7972,518.9250L411.7972,512.8200"/>
   <path d="M427.0750,91.5750L427.0750,97.6800"/>
   <path d="M427.0750,518.9250L427.0750,512.8200"/>
   <path d="M442.3528,91.5750L442.3528,97.6800"/>
   <path d="M442.3528,518.9250L442.3528,512.8200"/>
   <path d="M457.6306,91.5750L457.6306,97.6800"/>
   <path d="M457.6306,518.9250L457.6306,512.8200"/>
   <path d="M472.9083,91.5750L472.9083,97.6800"/>
   <path d="M472.9083,518.9250L472.9083,512.8200"/>
   <path d="M488.1861,91.5750L488.1861,97.6800"/>
   <path d="M488.1861,518.9250L488.1861,512.8200"/>
   <path d="M503.4639,91.5750L503.4639,97.6800"/>
   <path d="M503.4639,518.9250L503.4639,512.8200"/>
   <path d="M518.7417,91.5750L518.7417,97.6800"/>
   <path d="M518.7417,518.9250L518.7417,512.8200"/>
   <path d="M534.0194,91.5750L534.0194,97.6800"/>
   <path d="M534.0194,518.9250L534.0194,512.8200"/>
   <path d="M564.5750,91.5750L564.5750,97.6800"/>
   <path d="M564.5750,518.9250L564.5750,512.8200"/>
   <path d="M579.8528,91.5750L579.8528,97.6800"/>
   <path d="M579.8528,518.9250L579.8528,512.8200"/>
   <path d="M595.1306,91.5750L595.1306,97.6800"/>
   <path d="M595.1306,518.9250L595.1306,512.8200"/>
   <path d="M610.4083,91.5750L610.4083,97.6800"/>
   <path d="M610.4083,518.9250L610.4083,512.8200"/>
   <path d="M625.6861,91.5750L625.6861,97.6800"/>
   <path d="M625.6861,518.9250L625.6861,512.8200"/>
   <path d="M640.9639,91.5750L640.9639,97.6800"/>
   <path d="M640.9639,518.9250L640.9639,512.8200"/>
   <path d="M656.2417,91.5750L656.2417,97.6800"/>
   <path d="M656.2417,518.9250L656.2417,512.8200"/>
   <path d="M671.5194,91.5750L671.5194,97.6800"/>
   <path d="M671.5194,518.9250L671.5194,512.8200"/>
   <path d="M686.7972,91.5750L686.7972,97.6800"/>
   <path d="M686.7972,518.9250L686.7972,512.8200"/>
   <path d="M243.7417,91.5750L243.7417,103.7850"/>
   <path d="M243.7417,518.9250L243.7417,506.7150"/>
   <path d="M396.5194,91.5750L396.5194,103.7850"/>
   <path d="M396.5194,518.9250L396.5194,506.7150"/>
   <path d="M549.2972,91.5750L549.2972,103.7850"/>
   <path d="M549.2972,518.9250L549.2972,506.7150"/>
   <path d="M702.0750,91.5750L702.0750,103.7850"/>
   <path d="M702.0750,518.9250L702.0750,506.7150"/>
  </g>
  <g style="fill:#000000; fill-rule:nonzero">
   <text   style="font-family:'Helvetica','Nimbus Sans L'; font-style:normal; font-weight:normal; font-size:610.5000" transform="matrix(0.0280,0.0000,-0.0000,-0.0280,229.8667,73.4700)">100</text>
   <text   style="font-family:'Helvetica','Nimbus Sans L'; font-style:normal; font-weight:normal; font-size:610.5000" transform="matrix(0.0280,0.0000,-0.0000,-0.0280,382.6444,73.4700)">200</text>
   <text   style="font-family:'Helvetica','Nimbus Sans L'; font-style:normal; font-weight:normal; font-size:610.5000" transform="matrix(0.0280,0.0000,-0.0000,-0.0280,535.4222,73.4700)">300</text>
   <text   style="font-family:'Helvetica','Nimbus Sans L'; font-style:normal; font-weight:normal; font-size:610.5000" transform="matrix(0.0280,0.0000,-0.0000,-0.0280,688.2000,73.4700)">400</text>
   <text   style="font-family:'Helvetica','Nimbus Sans L'; font-style:normal; font-weight:normal; font-size:610.5000" transform="matrix(0.0207,0.0000,-0.0000,-0.0207,336.0750,56.8650)">Polygons (thousands)</text>
  </g>
  <g style="fill:none; stroke:#000000; stroke-width:  0.9158; stroke-linecap:butt; stroke-linejoin:miter; stroke-dasharray:none">
   <path d="M91.5750,91.5750L91.5750,518.9250"/>
   <path d="M702.0750,91.5750L702.0750,518.9250"/>
   <path d="M91.5750,144.9938L97.6800,144.9938"/>
   <path d="M702.0750,144.9938L695.9700,144.9938"/>
   <path d="M91.5750,251.8312L97.6800,251.8312"/>
   <path d="M702.0750,251.8312L695.9700,251.8312"/>
   <path d="M91.5750,358.6687L97.6800,358.6687"/>
   <path d="M702.0750,358.6687L695.9700,358.6687"/>
   <path d="M91.5750,465.5062L97.6800,465.5062"/>
   <path d="M702.0750,465.5062L695.9700,465.5062"/>
   <path d="M91.5750,91.5750L103.7850,91.5750"/>
   <path d="M702.0750,91.5750L689.8650,91.5750"/>
   <path d="M91.5750,198.4125L103.7850,198.4125"/>
   <path d="M702.0750,198.4125L689.8650,198.4125"/>
   <path d="M91.5750,305.2500L103.7850,305.2500"/>
   <path d="M702.0750,305.2500L689.8650,305.2500"/>
   <path d="M91.5750,412.0875L103.7850,412.0875"/>
   <path d="M702.0750,412.0875L689.8650,412.0875"/>
   <path d="M91.5750,518.9250L103.7850,518.9250"/>
   <path d="M702.0750,518.9250L689.8650,518.9250"/>
  </g>
  <g style="fill:#000000; fill-rule:nonzero">
   <text   style="font-family:'Helvetica','Nimbus Sans L'; font-style:normal; font-weight:normal; font-size:610.5000" transform="matrix(0.0280,0.0000,-0.0000,-0.0280,76.4700,85.9500)">6</text>
   <text   style="font-family:'Helvetica','Nimbus Sans L'; font-style:normal; font-weight:normal; font-size:610.5000" transform="matrix(0.0280,0.0000,-0.0000,-0.0280,76.4700,192.7875)">8</text>
   <text   style="font-family:'Helvetica','Nimbus Sans L'; font-style:normal; font-weight:normal; font-size:610.5000" transform="matrix(0.0280,0.0000,-0.0000,-0.0280,67.4700,299.6250)">10</text>
   <text   style="font-family:'Helvetica','Nimbus Sans L'; font-style:normal; font-weight:normal; font-size:610.5000" transform="matrix(0.0280,0.0000,-0.0000,-0.0280,67.4700,406.0875)">12</text>
   <text   style="font-family:'Helvetica','Nimbus Sans L'; font-style:normal; font-weight:normal; font-size:610.5000" transform="matrix(0.0280,0.0000,-0.0000,-0.0280,66.7200,512.9250)">14</text>
   <text   style="font-family:'Helvetica','Nimbus Sans L'; font-style:normal; font-weight:normal; font-size:610.5000" transform="matrix(0.0000,0.0207,0.0207,-0.0000,60.6150,192.7500)">Ratio of Hardware FPS to Software FPS</text>
  </g>
  <g style="fill:none; stroke:#000000; stroke-width:  0.9158; stroke-linecap:butt; stroke-linejoin:miter; stroke-dasharray:none">
   <path d="M91.5750,91.5750L91.5750,518.9250L702.0750,518.9250L702.0750,91.5750z"/>
  </g>
  <g style="fill:#000000; fill-rule:nonzero">
   <text   style="font-family:'Helvetica','Nimbus Sans L'; font-style:normal; font-weight:normal; font-size:610.5000" transform="matrix(0.0266,0.0000,-0.0000,-0.0266,179.7000,559.3050)">Relative Performance of Mesh Deformation Implementations</text>
   <text   style="font-family:'Helvetica','Nimbus Sans L'; font-style:normal; font-weight:normal; font-size:610.5000" transform="matrix(0.0202,0.0000,-0.0000,-0.0202,295.5750,534.1350)">Comparison of Hardware to Software</text>
  </g>
 </g>
</svg>
